<svg width="225" height="30" viewBox="0 0 384 72" fill="none" xmlns="http://www.w3.org/2000/svg">
<path d="M42.7024 63.6591C39.9027 63.6591 37.5057 63.2692 35.5114 62.4893C33.517 61.7095 31.951 60.642 30.8132 59.2869C29.6754 57.9318 28.9915 56.3977 28.7614 54.6847L37.6399 54.1861C37.8061 54.7869 38.1129 55.3111 38.5604 55.7585C39.0206 56.206 39.6151 56.5511 40.3438 56.794C41.0852 57.0369 41.9545 57.1584 42.9517 57.1584C44.5241 57.1584 45.8217 56.7749 46.8445 56.0078C47.88 55.2536 48.3977 53.9304 48.3977 52.0384V46.8608H48.0717C47.701 47.7685 47.1385 48.5803 46.3842 49.2962C45.63 50.0121 44.6903 50.5746 43.5653 50.9837C42.4531 51.3928 41.1747 51.5973 39.7301 51.5973C37.5824 51.5973 35.6136 51.0987 33.8239 50.1016C32.0469 49.0916 30.6214 47.532 29.5476 45.4226C28.4865 43.3004 27.956 40.571 27.956 37.2344C27.956 33.7955 28.5057 30.9638 29.6051 28.7393C30.7045 26.5021 32.1428 24.8466 33.9197 23.7727C35.7095 22.6989 37.6335 22.1619 39.6918 22.1619C41.2386 22.1619 42.5618 22.4304 43.6612 22.9673C44.7734 23.4915 45.6875 24.169 46.4034 25C47.1193 25.831 47.6626 26.6939 48.0334 27.5888H48.3018V22.5455H57.6406V52.1151C57.6406 54.608 57.0142 56.7109 55.7614 58.424C54.5085 60.1371 52.7571 61.4347 50.5071 62.3168C48.2571 63.2116 45.6555 63.6591 42.7024 63.6591ZM42.9901 44.7706C44.1278 44.7706 45.0994 44.4702 45.9048 43.8693C46.7102 43.2685 47.3303 42.4055 47.7649 41.2805C48.1996 40.1555 48.4169 38.8068 48.4169 37.2344C48.4169 35.6364 48.1996 34.2621 47.7649 33.1115C47.343 31.9482 46.723 31.0533 45.9048 30.4268C45.0994 29.8004 44.1278 29.4872 42.9901 29.4872C41.8267 29.4872 40.8423 29.8068 40.0369 30.446C39.2315 31.0852 38.6179 31.9865 38.196 33.1499C37.7869 34.3004 37.5824 35.6619 37.5824 37.2344C37.5824 38.8068 37.7933 40.1555 38.2152 41.2805C38.6371 42.4055 39.2443 43.2685 40.0369 43.8693C40.8423 44.4702 41.8267 44.7706 42.9901 44.7706ZM74.6159 35.2017V52H65.2388V12.7273H74.3091V27.9531H74.6351C75.2999 26.1378 76.3865 24.7187 77.895 23.696C79.4163 22.6733 81.2764 22.1619 83.4753 22.1619C85.5463 22.1619 87.3489 22.6222 88.883 23.5426C90.4171 24.4503 91.606 25.7351 92.4497 27.397C93.3063 29.0589 93.7281 31.0021 93.7153 33.2266V52H84.3382V35.0675C84.351 33.4311 83.9419 32.1527 83.1109 31.2322C82.28 30.3118 81.1102 29.8516 79.6017 29.8516C78.6173 29.8516 77.748 30.0689 76.9938 30.5036C76.2523 30.9254 75.6706 31.5327 75.2487 32.3253C74.8396 33.1179 74.6287 34.0767 74.6159 35.2017ZM109.492 52.4986C107.613 52.4986 105.945 52.1854 104.487 51.5589C103.043 50.9197 101.898 49.9609 101.055 48.6825C100.224 47.3913 99.8082 45.7741 99.8082 43.831C99.8082 42.1946 100.096 40.8139 100.671 39.6889C101.246 38.5639 102.039 37.6499 103.049 36.9467C104.059 36.2436 105.222 35.7131 106.539 35.3551C107.856 34.9844 109.262 34.7351 110.758 34.6072C112.432 34.4538 113.781 34.294 114.804 34.1278C115.827 33.9489 116.568 33.6996 117.028 33.38C117.501 33.0476 117.738 32.581 117.738 31.9801V31.8842C117.738 30.8999 117.399 30.1392 116.722 29.6023C116.044 29.0653 115.13 28.7969 113.979 28.7969C112.739 28.7969 111.742 29.0653 110.988 29.6023C110.234 30.1392 109.754 30.8807 109.55 31.8267L100.901 31.5199C101.157 29.7301 101.815 28.1321 102.876 26.7259C103.95 25.3068 105.42 24.1946 107.287 23.3892C109.166 22.571 111.423 22.1619 114.056 22.1619C115.935 22.1619 117.668 22.3857 119.253 22.8331C120.838 23.2678 122.219 23.907 123.395 24.7507C124.571 25.5817 125.479 26.6044 126.118 27.8189C126.77 29.0334 127.096 30.4205 127.096 31.9801V52H118.275V47.8963H118.045C117.521 48.8935 116.849 49.7372 116.031 50.4276C115.226 51.1179 114.273 51.6357 113.174 51.9808C112.087 52.326 110.86 52.4986 109.492 52.4986ZM112.388 46.3622C113.398 46.3622 114.305 46.1577 115.111 45.7486C115.929 45.3395 116.581 44.777 117.067 44.0611C117.552 43.3324 117.795 42.4886 117.795 41.5298V38.7301C117.527 38.8707 117.201 38.9986 116.817 39.1136C116.447 39.2287 116.038 39.3374 115.59 39.4396C115.143 39.5419 114.682 39.6314 114.209 39.7081C113.736 39.7848 113.283 39.8551 112.848 39.919C111.966 40.0597 111.212 40.277 110.585 40.571C109.972 40.8651 109.499 41.2486 109.166 41.7216C108.847 42.1818 108.687 42.7315 108.687 43.3707C108.687 44.3423 109.032 45.0838 109.722 45.5952C110.425 46.1065 111.314 46.3622 112.388 46.3622ZM134.449 52V22.5455H143.558V27.9148H143.865C144.402 25.9716 145.278 24.527 146.492 23.581C147.707 22.6222 149.119 22.1428 150.73 22.1428C151.165 22.1428 151.612 22.1747 152.072 22.2386C152.533 22.2898 152.961 22.3729 153.357 22.4879V30.6378C152.91 30.4844 152.322 30.3629 151.593 30.2734C150.877 30.1839 150.238 30.1392 149.675 30.1392C148.563 30.1392 147.56 30.3885 146.665 30.8871C145.783 31.3729 145.086 32.0568 144.574 32.9389C144.076 33.8082 143.827 34.831 143.827 36.0071V52H134.449ZM173.314 52H158.798V12.7273H173.295C177.297 12.7273 180.742 13.5135 183.631 15.0859C186.533 16.6456 188.77 18.8956 190.343 21.8359C191.915 24.7635 192.701 28.2663 192.701 32.3445C192.701 36.4354 191.915 39.951 190.343 42.8913C188.783 45.8317 186.552 48.0881 183.65 49.6605C180.748 51.2202 177.303 52 173.314 52ZM168.29 43.9077H172.95C175.149 43.9077 177.009 43.5369 178.53 42.7955C180.064 42.0412 181.221 40.8203 182.001 39.1328C182.794 37.4325 183.19 35.1697 183.19 32.3445C183.19 29.5192 182.794 27.2692 182.001 25.5945C181.209 23.907 180.039 22.6925 178.492 21.951C176.958 21.1967 175.066 20.8196 172.816 20.8196H168.29V43.9077ZM213.632 52.5561C210.551 52.5561 207.892 51.9489 205.655 50.7344C203.43 49.5071 201.717 47.7621 200.515 45.4993C199.326 43.2237 198.732 40.5199 198.732 37.3878C198.732 34.3452 199.333 31.6861 200.534 29.4105C201.736 27.1222 203.43 25.3452 205.616 24.0795C207.802 22.8011 210.378 22.1619 213.344 22.1619C215.441 22.1619 217.358 22.4879 219.097 23.1399C220.836 23.7919 222.338 24.7571 223.603 26.0355C224.869 27.3139 225.853 28.8928 226.557 30.772C227.26 32.6385 227.611 34.7798 227.611 37.196V39.5355H202.011V34.0895H218.886C218.873 33.0923 218.637 32.2038 218.177 31.424C217.716 30.6442 217.083 30.0369 216.278 29.6023C215.485 29.1548 214.571 28.9311 213.536 28.9311C212.488 28.9311 211.548 29.1676 210.717 29.6406C209.886 30.1009 209.228 30.7337 208.742 31.5391C208.256 32.3317 208 33.233 207.975 34.2429V39.7848C207.975 40.9865 208.211 42.0412 208.684 42.9489C209.157 43.8437 209.829 44.5405 210.698 45.0391C211.567 45.5376 212.603 45.7869 213.804 45.7869C214.635 45.7869 215.39 45.6719 216.067 45.4418C216.745 45.2116 217.326 44.8729 217.812 44.4254C218.298 43.978 218.662 43.4283 218.905 42.7763L227.515 43.0256C227.157 44.956 226.371 46.6371 225.157 48.0689C223.955 49.4879 222.376 50.5937 220.42 51.3864C218.464 52.1662 216.201 52.5561 213.632 52.5561ZM242.477 44.272L242.515 33.0923H243.819L252.104 22.5455H262.727L250.416 37.6562H247.942L242.477 44.272ZM234.02 52V12.7273H243.398V52H234.02ZM252.314 52L244.606 39.7656L250.78 33.1115L263.149 52H252.314ZM277.08 35.2017V52H267.703V12.7273H276.773V27.9531H277.099C277.764 26.1378 278.851 24.7187 280.359 23.696C281.88 22.6733 283.741 22.1619 285.939 22.1619C288.01 22.1619 289.813 22.6222 291.347 23.5426C292.881 24.4503 294.07 25.7351 294.914 27.397C295.77 29.0589 296.192 31.0021 296.179 33.2266V52H286.802V35.0675C286.815 33.4311 286.406 32.1527 285.575 31.2322C284.744 30.3118 283.574 29.8516 282.066 29.8516C281.081 29.8516 280.212 30.0689 279.458 30.5036C278.716 30.9254 278.135 31.5327 277.713 32.3253C277.304 33.1179 277.093 34.0767 277.08 35.2017ZM317.402 52.5561C314.309 52.5561 311.649 51.9233 309.425 50.6577C307.213 49.3793 305.507 47.6023 304.305 45.3267C303.116 43.0384 302.522 40.3857 302.522 37.3686C302.522 34.3388 303.116 31.6861 304.305 29.4105C305.507 27.1222 307.213 25.3452 309.425 24.0795C311.649 22.8011 314.309 22.1619 317.402 22.1619C320.496 22.1619 323.149 22.8011 325.36 24.0795C327.585 25.3452 329.291 27.1222 330.48 29.4105C331.682 31.6861 332.283 34.3388 332.283 37.3686C332.283 40.3857 331.682 43.0384 330.48 45.3267C329.291 47.6023 327.585 49.3793 325.36 50.6577C323.149 51.9233 320.496 52.5561 317.402 52.5561ZM317.46 45.4801C318.585 45.4801 319.537 45.1349 320.317 44.4446C321.097 43.7543 321.691 42.7955 322.1 41.5682C322.522 40.3409 322.733 38.9219 322.733 37.3111C322.733 35.6747 322.522 34.2429 322.1 33.0156C321.691 31.7884 321.097 30.8295 320.317 30.1392C319.537 29.4489 318.585 29.1037 317.46 29.1037C316.296 29.1037 315.312 29.4489 314.507 30.1392C313.714 30.8295 313.107 31.7884 312.685 33.0156C312.276 34.2429 312.071 35.6747 312.071 37.3111C312.071 38.9219 312.276 40.3409 312.685 41.5682C313.107 42.7955 313.714 43.7543 314.507 44.4446C315.312 45.1349 316.296 45.4801 317.46 45.4801Z" fill="#1E1E1E"/>
</svg>
